<?xml version="1.0" encoding="UTF-8"?>
<svg width="62px" height="62px" viewBox="0 0 62 62" version="1.1" xmlns="http://www.w3.org/2000/svg" xmlns:xlink="http://www.w3.org/1999/xlink">
    <title>atom/technologies/python-logo</title>
    <defs>
        <linearGradient x1="12.7939646%" y1="12.0393928%" x2="79.7711766%" y2="78.2008538%" id="linearGradient-1">
            <stop stop-color="#387EB8" offset="0%"></stop>
            <stop stop-color="#366994" offset="100%"></stop>
        </linearGradient>
        <linearGradient x1="18.9896686%" y1="20.5791813%" x2="90.923458%" y2="88.4290372%" id="linearGradient-2">
            <stop stop-color="#FFE052" offset="0%"></stop>
            <stop stop-color="#FFC331" offset="100%"></stop>
        </linearGradient>
    </defs>
    <g id="1--atoms" stroke="none" stroke-width="1" fill="none" fill-rule="evenodd">
        <g id="A1" transform="translate(-150.000000, -2375.000000)" fill-rule="nonzero">
            <g id="python" transform="translate(150.000000, 2375.000000)">
                <path d="M30.791927,0 C15.0445876,0 16.027953,6.81380078 16.027953,6.81380078 L16.0455082,13.8728283 L31.0728115,13.8728283 L31.0728115,15.9922882 L10.0767196,15.9922882 C10.0767196,15.9922882 0,14.8520392 0,30.7058938 C0,46.5597451 8.79518559,45.9975341 8.79518559,45.9975341 L14.0442085,45.9975341 L14.0442085,38.6407313 C14.0442085,38.6407313 13.7612728,29.8651164 22.698952,29.8651164 L37.6033683,29.8651164 C37.6033683,29.8651164 45.9772277,30.000179 45.9772277,21.7901495 L45.9772277,8.21509656 C45.9772277,8.21509542 47.2486107,0 30.791927,0 L30.791927,0 L30.791927,0 Z M22.5058442,4.74688947 C24.0009507,4.74688947 25.2093544,5.95260416 25.2093544,7.44438386 C25.2093544,8.93616356 24.0009507,10.1418783 22.5058442,10.1418783 C21.0107376,10.1418783 19.802334,8.93616356 19.802334,7.44438386 C19.802334,5.95260416 21.0107376,4.74688947 22.5058442,4.74688947 L22.5058442,4.74688947 L22.5058442,4.74688947 Z" id="Shape" fill="url(#linearGradient-1)"></path>
                <path d="M31.2080735,62 C46.9554172,62 45.9720474,55.1861996 45.9720474,55.1861996 L45.9544922,48.1271729 L30.9271893,48.1271729 L30.9271893,46.0077132 L51.9232807,46.0077132 C51.9232807,46.0077132 62,47.1479588 62,31.2941032 C62,15.4402549 53.2048146,16.0024659 53.2048146,16.0024659 L47.9557917,16.0024659 L47.9557917,23.3592664 C47.9557917,23.3592664 48.238732,32.1348805 39.3010485,32.1348805 L24.3966313,32.1348805 C24.3966313,32.1348805 16.0227723,31.9998182 16.0227723,40.2098524 L16.0227723,53.7849042 C16.0227723,53.7849042 14.7513895,62 31.2080735,62 L31.2080735,62 L31.2080735,62 Z M39.4941561,57.253111 C37.9990494,57.253111 36.7906463,56.0473969 36.7906463,54.5556168 C36.7906463,53.0638365 37.9990494,51.8581226 39.4941561,51.8581226 C40.9892634,51.8581226 42.1976663,53.0638365 42.1976663,54.5556168 C42.1976663,56.0473969 40.9892634,57.253111 39.4941561,57.253111 L39.4941561,57.253111 L39.4941561,57.253111 Z" id="Shape" fill="url(#linearGradient-2)"></path>
            </g>
        </g>
    </g>
</svg>