<svg xmlns:osb="http://www.openswatchbook.org/uri/2009/osb" xmlns:dc="http://purl.org/dc/elements/1.1/" xmlns:cc="http://creativecommons.org/ns#" xmlns:rdf="http://www.w3.org/1999/02/22-rdf-syntax-ns#" xmlns:svg="http://www.w3.org/2000/svg" xmlns="http://www.w3.org/2000/svg" xmlns:xlink="http://www.w3.org/1999/xlink" xmlns:sodipodi="http://sodipodi.sourceforge.net/DTD/sodipodi-0.dtd" xmlns:inkscape="http://www.inkscape.org/namespaces/inkscape" version="1.1" id="svg3833" xml:space="preserve" width="202.96733" height="13.915999" viewBox="0 0 202.96733 13.915999" sodipodi:docname="wave.svg" inkscape:version="0.92.2 (5c3e80d, 2017-08-06)"><metadata id="metadata3839"><rdf:RDF><cc:Work rdf:about=""><dc:format>image/svg+xml</dc:format><dc:type rdf:resource="http://purl.org/dc/dcmitype/StillImage"/><dc:title/></cc:Work></rdf:RDF></metadata><defs id="defs3837"><linearGradient id="linearGradient829" osb:paint="solid"><stop style="stop-color:#000000;stop-opacity:1;" offset="0" id="stop827"/></linearGradient><linearGradient id="linearGradient7218" osb:paint="solid"><stop style="stop-color:#ff7f00;stop-opacity:1;" offset="0" id="stop7216"/></linearGradient><linearGradient id="linearGradient6926" osb:paint="solid"><stop style="stop-color:#000000;stop-opacity:1;" offset="0" id="stop6924"/></linearGradient><linearGradient id="linearGradient6914" osb:paint="solid"><stop style="stop-color:#ff0000;stop-opacity:1;" offset="0" id="stop6912"/></linearGradient><clipPath clipPathUnits="userSpaceOnUse" id="clipPath3849"><path d="M 0,256 H 256 V 0 H 0 Z" id="path3847" inkscape:connector-curvature="0"/></clipPath><linearGradient inkscape:collect="always" xlink:href="#linearGradient6914" id="linearGradient6916" x1="51.879017" y1="127.9999" x2="204.10451" y2="127.9999" gradientUnits="userSpaceOnUse"/><linearGradient inkscape:collect="always" xlink:href="#linearGradient6914" id="linearGradient6922" gradientUnits="userSpaceOnUse" x1="51.879017" y1="127.9999" x2="204.10451" y2="127.9999"/></defs><sodipodi:namedview pagecolor="#ffffff" bordercolor="#666666" borderopacity="1" objecttolerance="10" gridtolerance="10" guidetolerance="10" inkscape:pageopacity="0" inkscape:pageshadow="2" inkscape:window-width="1211" inkscape:window-height="791" id="namedview3835" showgrid="false" inkscape:zoom="4" inkscape:cx="91.627535" inkscape:cy="7.7701056" inkscape:window-x="560" inkscape:window-y="113" inkscape:window-maximized="0" inkscape:current-layer="g3845"/><g id="g3841" inkscape:groupmode="layer" inkscape:label="Icons-kopia" transform="matrix(1.3333333,0,0,-1.3333333,-69.172022,177.62453)"><g id="g3843" style="fill:none;stroke:url(#linearGradient6916)"><g id="g3845" clip-path="url(#clipPath3849)" style="fill:none;stroke:url(#linearGradient6922)"><g id="g3851" transform="translate(51.9014,132.2144)" style="fill:none;stroke:#ff4e00;stroke-opacity:1;stroke-width:2.19974994;stroke-miterlimit:4;stroke-dasharray:none;stroke-dashoffset:1.53982504;fill-opacity:1"><path d="m 0,0 c 0.134,0.003 0.269,0.004 0.404,0.004 6.128,0 9.333,-2.848 11.908,-5.137 2.235,-1.988 3.712,-3.3 7.076,-3.3 3.365,0 4.842,1.312 7.078,3.301 2.576,2.288 5.781,5.136 11.91,5.136 6.129,0 9.334,-2.848 11.909,-5.136 2.237,-1.988 3.715,-3.301 7.081,-3.301 3.365,0 4.843,1.312 7.079,3.301 2.576,2.288 5.781,5.136 11.909,5.136 6.129,0 9.334,-2.848 11.91,-5.136 2.236,-1.989 3.715,-3.301 7.08,-3.301 3.365,0 4.843,1.312 7.08,3.301 2.575,2.288 5.78,5.136 11.91,5.136 6.13,0 9.336,-2.848 11.911,-5.136 2.237,-1.988 3.716,-3.301 7.082,-3.301 3.366,0 4.844,1.312 7.081,3.301 2.556,2.272 5.738,5.099 11.789,5.136" style="fill:none;stroke:#ff4e00;stroke-opacity:1;stroke-width:2.19974994;stroke-miterlimit:4;stroke-dasharray:none;stroke-dashoffset:1.53982504;fill-opacity:1" id="path3853" inkscape:connector-curvature="0"/></g></g></g></g></svg>